<svg width="6394.999999999999" height="1079" xmlns="http://www.w3.org/2000/svg"><defs><clipPath id="clip-path"><rect width="6395" height="1079" fill="#fff" y="0" x="-5391" id="svg_1"/></clipPath></defs><g><title>Layer 1</title><g id="svg_2"><path id="Path_142" data-name="Path 142" d="m6367.01818,-7.302s-222.478,187.809 -55.349,583.254c44.957,106.375 81.514,205.964 84.521,277c8.164,192.764 -156.046,268.564 -156.046,268.564l-653.53,-26.8l-16.265,-1117.467l796.669,15.449z" fill="#f1f5f8"/><path id="Union_6" data-name="Union 6" d="m5600.09092,1081.477l0,-1.6l-5599.8,0l0,-1080.178l5599.8,0l0,-0.022l759.7,0s-187.845,197.448 -91.626,488.844c49.167,148.9 96.309,256.289 104.683,362.118c7.979,100.852 -57.98,201.711 -168.644,254.286c-65.858,31.29 -144.552,42.382 -223.028,42.383c-191.185,0.001 -381.085,-65.831 -381.085,-65.831z" fill="#1a6e8b"/></g></g></svg>